<svg width="17" height="22" viewBox="0 0 17 22" fill="none" xmlns="http://www.w3.org/2000/svg">
<path d="M14.2066 2.50185H11.5722V2.152C11.5722 0.965333 10.6068 0 9.42009 0H7.2112C6.02453 0 5.0592 0.965333 5.0592 2.152V2.50185H2.42483C1.12142 2.50185 0.0609741 3.5623 0.0609741 4.8657V6.24778C0.0609741 6.666 0.400085 7.00511 0.818308 7.00511H1.37105L2.40024 19.3556C2.52379 20.8384 3.78624 22 5.27424 22H11.3571C12.8451 22 14.1076 20.8384 14.2311 19.3556L15.2603 7.00519H15.8131C16.2313 7.00519 16.5704 6.66607 16.5704 6.24785V4.86578C16.5705 3.56237 15.51 2.50185 14.2066 2.50185ZM6.57387 2.152C6.57387 1.80059 6.85979 1.51467 7.2112 1.51467H9.42009C9.77157 1.51467 10.0575 1.80059 10.0575 2.152V2.50185H6.57387V2.152V2.152ZM12.7217 19.2298C12.6631 19.9339 12.0637 20.4853 11.3571 20.4853H5.27424C4.56772 20.4853 3.96831 19.9339 3.90964 19.2298L2.8909 7.00519H13.7405L12.7217 19.2298ZM15.0559 5.49059H1.57564V4.86578C1.57564 4.39748 1.95661 4.01652 2.4249 4.01652H14.2066C14.6749 4.01652 15.0559 4.39748 15.0559 4.86578V5.49059Z" fill="black"/>
</svg>
