<svg width="22" height="22" viewBox="0 0 22 22" fill="none" xmlns="http://www.w3.org/2000/svg">
<path d="M11 17.0092C10.4683 17.0092 10.0372 16.5781 10.0372 16.0464V5.95362C10.0372 5.42193 10.4683 4.99084 11 4.99084C11.5317 4.99084 11.9628 5.42193 11.9628 5.95362V16.0464C11.9628 16.5781 11.5317 17.0092 11 17.0092Z" fill="black"/>
<path d="M16.0464 11.9628H5.95362C5.42193 11.9628 4.99084 11.5317 4.99084 11C4.99084 10.4683 5.42193 10.0372 5.95362 10.0372H16.0464C16.5781 10.0372 17.0092 10.4683 17.0092 11C17.0092 11.5317 16.5781 11.9628 16.0464 11.9628Z" fill="black"/>
<path d="M11 21.8312C5.02765 21.8312 0.168762 16.9723 0.168762 11C0.168762 5.02768 5.02765 0.168793 11 0.168793C16.9723 0.168793 21.8312 5.02768 21.8312 11C21.8312 16.9723 16.9723 21.8312 11 21.8312ZM11 2.09434C6.08934 2.09434 2.09431 6.08938 2.09431 11C2.09431 15.9106 6.08934 19.9057 11 19.9057C15.9106 19.9057 19.9056 15.9106 19.9056 11C19.9056 6.08938 15.9106 2.09434 11 2.09434Z" fill="black"/>
</svg>
